<mxfile host="app.diagrams.net" modified="2023-03-03T11:43:40.582Z" agent="5.0 (X11; Ubuntu)" etag="oQ0fY3_QDltG6wmXZy1n" version="20.8.17" type="github">
  <diagram name="Pagina-1" id="KQILrfFx1y16bpIwgD-u">
    <mxGraphModel dx="1820" dy="2073" grid="1" gridSize="10" guides="1" tooltips="1" connect="1" arrows="1" fold="1" page="1" pageScale="1" pageWidth="827" pageHeight="1169" math="0" shadow="0">
      <root>
        <mxCell id="0" />
        <mxCell id="1" parent="0" />
        <mxCell id="qCh6I8fhxBl5zx6jld5_-2" value="" style="rounded=1;whiteSpace=wrap;html=1;arcSize=3;" vertex="1" parent="1">
          <mxGeometry x="400" y="50" width="1020" height="640" as="geometry" />
        </mxCell>
        <mxCell id="qCh6I8fhxBl5zx6jld5_-3" value="«component»&lt;br&gt;&lt;b&gt;EPOS API Gateway&lt;/b&gt;" style="html=1;dropTarget=0;strokeColor=#CCCC00;" vertex="1" parent="1">
          <mxGeometry x="430" y="166.4" width="960" height="28.6" as="geometry" />
        </mxCell>
        <mxCell id="qCh6I8fhxBl5zx6jld5_-4" value="«component»&lt;br&gt;&lt;b&gt;Queueing System&lt;/b&gt;" style="html=1;dropTarget=0;" vertex="1" parent="1">
          <mxGeometry x="430" y="380" width="960" height="50" as="geometry" />
        </mxCell>
        <mxCell id="qCh6I8fhxBl5zx6jld5_-5" value="&lt;br&gt;«component»&lt;br&gt;&lt;b&gt;Resources Service&lt;/b&gt;" style="html=1;dropTarget=0;strokeColor=#3333FF;v-align=top;labelPosition=center;verticalLabelPosition=middle;align=center;verticalAlign=top;" vertex="1" parent="1">
          <mxGeometry x="641.25" y="228.45" width="145" height="90" as="geometry" />
        </mxCell>
        <mxCell id="qCh6I8fhxBl5zx6jld5_-6" value="" style="shape=module;jettyWidth=8;jettyHeight=4;" vertex="1" parent="qCh6I8fhxBl5zx6jld5_-5">
          <mxGeometry x="1" width="20" height="20" relative="1" as="geometry">
            <mxPoint x="-27" y="7" as="offset" />
          </mxGeometry>
        </mxCell>
        <mxCell id="qCh6I8fhxBl5zx6jld5_-7" value="&lt;br&gt;«component»&lt;br&gt;&lt;b&gt;External Access Service&lt;/b&gt;" style="html=1;dropTarget=0;strokeColor=#3333FF;verticalAlign=top;" vertex="1" parent="1">
          <mxGeometry x="491.75" y="229.54999999999998" width="140" height="88.6" as="geometry" />
        </mxCell>
        <mxCell id="qCh6I8fhxBl5zx6jld5_-8" value="" style="shape=module;jettyWidth=8;jettyHeight=4;" vertex="1" parent="qCh6I8fhxBl5zx6jld5_-7">
          <mxGeometry x="1" width="20" height="20" relative="1" as="geometry">
            <mxPoint x="-27" y="7" as="offset" />
          </mxGeometry>
        </mxCell>
        <mxCell id="qCh6I8fhxBl5zx6jld5_-9" value="«component»&lt;br&gt;&lt;b&gt;Converter Service&lt;/b&gt;" style="html=1;dropTarget=0;strokeColor=#FF3333;" vertex="1" parent="1">
          <mxGeometry x="815" y="230" width="132.5" height="90" as="geometry" />
        </mxCell>
        <mxCell id="qCh6I8fhxBl5zx6jld5_-10" value="" style="shape=module;jettyWidth=8;jettyHeight=4;" vertex="1" parent="qCh6I8fhxBl5zx6jld5_-9">
          <mxGeometry x="1" width="20" height="20" relative="1" as="geometry">
            <mxPoint x="-27" y="7" as="offset" />
          </mxGeometry>
        </mxCell>
        <mxCell id="qCh6I8fhxBl5zx6jld5_-11" value="«component»&lt;br&gt;&lt;b&gt;Data &amp;amp; Metadata Service&lt;/b&gt;" style="html=1;dropTarget=0;strokeColor=#FF3333;verticalAlign=top;" vertex="1" parent="1">
          <mxGeometry x="876.87" y="491.4" width="180" height="180" as="geometry" />
        </mxCell>
        <mxCell id="qCh6I8fhxBl5zx6jld5_-12" value="" style="shape=module;jettyWidth=8;jettyHeight=4;" vertex="1" parent="qCh6I8fhxBl5zx6jld5_-11">
          <mxGeometry x="1" width="20" height="20" relative="1" as="geometry">
            <mxPoint x="-27" y="7" as="offset" />
          </mxGeometry>
        </mxCell>
        <mxCell id="qCh6I8fhxBl5zx6jld5_-13" value="" style="rounded=0;orthogonalLoop=1;jettySize=auto;html=1;endArrow=none;endFill=0;exitX=0.641;exitY=0.02;exitDx=0;exitDy=0;exitPerimeter=0;" edge="1" parent="1" source="qCh6I8fhxBl5zx6jld5_-11" target="qCh6I8fhxBl5zx6jld5_-14">
          <mxGeometry relative="1" as="geometry">
            <mxPoint x="991.87" y="488.4" as="sourcePoint" />
            <mxPoint x="995.87" y="462.4" as="targetPoint" />
          </mxGeometry>
        </mxCell>
        <mxCell id="qCh6I8fhxBl5zx6jld5_-14" value="" style="ellipse;whiteSpace=wrap;html=1;fontFamily=Helvetica;fontSize=12;fontColor=#000000;align=center;strokeColor=#000000;fillColor=#ffffff;points=[];aspect=fixed;resizable=0;" vertex="1" parent="1">
          <mxGeometry x="986.87" y="461.4" width="10" height="10" as="geometry" />
        </mxCell>
        <mxCell id="qCh6I8fhxBl5zx6jld5_-15" value="" style="rounded=0;orthogonalLoop=1;jettySize=auto;html=1;endArrow=halfCircle;endFill=0;endSize=6;strokeWidth=1;exitX=0.5;exitY=1;exitDx=0;exitDy=0;entryX=0.535;entryY=0.114;entryDx=0;entryDy=0;entryPerimeter=0;" edge="1" parent="1" target="qCh6I8fhxBl5zx6jld5_-14">
          <mxGeometry relative="1" as="geometry">
            <mxPoint x="991.9700000000003" y="430" as="sourcePoint" />
            <mxPoint x="991.6400000000001" y="449" as="targetPoint" />
            <Array as="points" />
          </mxGeometry>
        </mxCell>
        <mxCell id="qCh6I8fhxBl5zx6jld5_-16" value="" style="rounded=0;orthogonalLoop=1;jettySize=auto;html=1;endArrow=halfCircle;endFill=0;endSize=6;strokeWidth=1;exitX=0.5;exitY=0;exitDx=0;exitDy=0;" edge="1" parent="1" source="qCh6I8fhxBl5zx6jld5_-11">
          <mxGeometry relative="1" as="geometry">
            <mxPoint x="931.87" y="442.4" as="sourcePoint" />
            <mxPoint x="966.8699999999999" y="461.4000000000001" as="targetPoint" />
            <Array as="points" />
          </mxGeometry>
        </mxCell>
        <mxCell id="qCh6I8fhxBl5zx6jld5_-17" value="" style="ellipse;whiteSpace=wrap;html=1;fontFamily=Helvetica;fontSize=12;fontColor=#000000;align=center;strokeColor=#000000;fillColor=#ffffff;points=[];aspect=fixed;resizable=0;" vertex="1" parent="1">
          <mxGeometry x="961.87" y="450" width="10" height="10" as="geometry" />
        </mxCell>
        <mxCell id="qCh6I8fhxBl5zx6jld5_-18" value="" style="rounded=0;orthogonalLoop=1;jettySize=auto;html=1;endArrow=none;endFill=0;" edge="1" parent="1" target="qCh6I8fhxBl5zx6jld5_-17">
          <mxGeometry relative="1" as="geometry">
            <mxPoint x="966.8699999999999" y="431" as="sourcePoint" />
            <mxPoint x="932.87" y="472" as="targetPoint" />
          </mxGeometry>
        </mxCell>
        <mxCell id="qCh6I8fhxBl5zx6jld5_-19" value="&lt;font style=&quot;font-size: 10px&quot;&gt;sendResultSet()&lt;/font&gt;" style="text;html=1;align=center;verticalAlign=middle;resizable=0;points=[];autosize=1;" vertex="1" parent="1">
          <mxGeometry x="997.5" y="461.4" width="90" height="20" as="geometry" />
        </mxCell>
        <mxCell id="qCh6I8fhxBl5zx6jld5_-20" value="&lt;font style=&quot;font-size: 10px&quot;&gt;getRequest()&lt;/font&gt;" style="text;html=1;align=center;verticalAlign=middle;resizable=0;points=[];autosize=1;" vertex="1" parent="1">
          <mxGeometry x="889.06" y="461.4" width="70" height="20" as="geometry" />
        </mxCell>
        <mxCell id="qCh6I8fhxBl5zx6jld5_-21" value="" style="rounded=0;orthogonalLoop=1;jettySize=auto;html=1;endArrow=none;endFill=0;exitX=0.641;exitY=0.02;exitDx=0;exitDy=0;exitPerimeter=0;" edge="1" parent="1" target="qCh6I8fhxBl5zx6jld5_-22">
          <mxGeometry relative="1" as="geometry">
            <mxPoint x="572.1300000000001" y="378.1500000000001" as="sourcePoint" />
            <mxPoint x="575.75" y="347.75000000000006" as="targetPoint" />
          </mxGeometry>
        </mxCell>
        <mxCell id="qCh6I8fhxBl5zx6jld5_-22" value="" style="ellipse;whiteSpace=wrap;html=1;fontFamily=Helvetica;fontSize=12;fontColor=#000000;align=center;strokeColor=#000000;fillColor=#ffffff;points=[];aspect=fixed;resizable=0;" vertex="1" parent="1">
          <mxGeometry x="566.75" y="346.75000000000006" width="10" height="10" as="geometry" />
        </mxCell>
        <mxCell id="qCh6I8fhxBl5zx6jld5_-23" value="" style="rounded=0;orthogonalLoop=1;jettySize=auto;html=1;endArrow=halfCircle;endFill=0;endSize=6;strokeWidth=1;exitX=0.5;exitY=1;exitDx=0;exitDy=0;entryX=0.535;entryY=0.114;entryDx=0;entryDy=0;entryPerimeter=0;" edge="1" parent="1" target="qCh6I8fhxBl5zx6jld5_-22">
          <mxGeometry relative="1" as="geometry">
            <mxPoint x="571.8499999999999" y="316.75" as="sourcePoint" />
            <mxPoint x="571.5200000000001" y="335.75000000000006" as="targetPoint" />
            <Array as="points" />
          </mxGeometry>
        </mxCell>
        <mxCell id="qCh6I8fhxBl5zx6jld5_-24" value="" style="rounded=0;orthogonalLoop=1;jettySize=auto;html=1;endArrow=halfCircle;endFill=0;endSize=6;strokeWidth=1;exitX=0.5;exitY=0;exitDx=0;exitDy=0;" edge="1" parent="1">
          <mxGeometry relative="1" as="geometry">
            <mxPoint x="546.75" y="376.75" as="sourcePoint" />
            <mxPoint x="546.75" y="346.75" as="targetPoint" />
            <Array as="points" />
          </mxGeometry>
        </mxCell>
        <mxCell id="qCh6I8fhxBl5zx6jld5_-25" value="" style="ellipse;whiteSpace=wrap;html=1;fontFamily=Helvetica;fontSize=12;fontColor=#000000;align=center;strokeColor=#000000;fillColor=#ffffff;points=[];aspect=fixed;resizable=0;" vertex="1" parent="1">
          <mxGeometry x="541.75" y="336.75000000000006" width="10" height="10" as="geometry" />
        </mxCell>
        <mxCell id="qCh6I8fhxBl5zx6jld5_-26" value="" style="rounded=0;orthogonalLoop=1;jettySize=auto;html=1;endArrow=none;endFill=0;" edge="1" parent="1" target="qCh6I8fhxBl5zx6jld5_-25">
          <mxGeometry relative="1" as="geometry">
            <mxPoint x="546.75" y="317.75" as="sourcePoint" />
            <mxPoint x="512.75" y="358.75000000000006" as="targetPoint" />
          </mxGeometry>
        </mxCell>
        <mxCell id="qCh6I8fhxBl5zx6jld5_-27" value="" style="rounded=0;orthogonalLoop=1;jettySize=auto;html=1;endArrow=none;endFill=0;exitX=0.641;exitY=0.02;exitDx=0;exitDy=0;exitPerimeter=0;" edge="1" parent="1" target="qCh6I8fhxBl5zx6jld5_-28">
          <mxGeometry relative="1" as="geometry">
            <mxPoint x="710.6300000000001" y="378.4500000000003" as="sourcePoint" />
            <mxPoint x="714.25" y="348.05" as="targetPoint" />
          </mxGeometry>
        </mxCell>
        <mxCell id="qCh6I8fhxBl5zx6jld5_-28" value="" style="ellipse;whiteSpace=wrap;html=1;fontFamily=Helvetica;fontSize=12;fontColor=#000000;align=center;strokeColor=#000000;fillColor=#ffffff;points=[];aspect=fixed;resizable=0;" vertex="1" parent="1">
          <mxGeometry x="705.25" y="347.05" width="10" height="10" as="geometry" />
        </mxCell>
        <mxCell id="qCh6I8fhxBl5zx6jld5_-29" value="" style="rounded=0;orthogonalLoop=1;jettySize=auto;html=1;endArrow=halfCircle;endFill=0;endSize=6;strokeWidth=1;exitX=0.5;exitY=1;exitDx=0;exitDy=0;entryX=0.535;entryY=0.114;entryDx=0;entryDy=0;entryPerimeter=0;" edge="1" parent="1" target="qCh6I8fhxBl5zx6jld5_-28">
          <mxGeometry relative="1" as="geometry">
            <mxPoint x="710.3499999999999" y="317.0500000000002" as="sourcePoint" />
            <mxPoint x="710.0200000000001" y="336.05" as="targetPoint" />
            <Array as="points" />
          </mxGeometry>
        </mxCell>
        <mxCell id="qCh6I8fhxBl5zx6jld5_-30" value="" style="rounded=0;orthogonalLoop=1;jettySize=auto;html=1;endArrow=halfCircle;endFill=0;endSize=6;strokeWidth=1;exitX=0.5;exitY=0;exitDx=0;exitDy=0;" edge="1" parent="1">
          <mxGeometry relative="1" as="geometry">
            <mxPoint x="685.25" y="377.0500000000002" as="sourcePoint" />
            <mxPoint x="685.25" y="347.0500000000002" as="targetPoint" />
            <Array as="points" />
          </mxGeometry>
        </mxCell>
        <mxCell id="qCh6I8fhxBl5zx6jld5_-31" value="" style="ellipse;whiteSpace=wrap;html=1;fontFamily=Helvetica;fontSize=12;fontColor=#000000;align=center;strokeColor=#000000;fillColor=#ffffff;points=[];aspect=fixed;resizable=0;" vertex="1" parent="1">
          <mxGeometry x="680.25" y="337.05" width="10" height="10" as="geometry" />
        </mxCell>
        <mxCell id="qCh6I8fhxBl5zx6jld5_-32" value="" style="rounded=0;orthogonalLoop=1;jettySize=auto;html=1;endArrow=none;endFill=0;" edge="1" parent="1" target="qCh6I8fhxBl5zx6jld5_-31">
          <mxGeometry relative="1" as="geometry">
            <mxPoint x="685.25" y="318.0500000000002" as="sourcePoint" />
            <mxPoint x="651.25" y="359.05" as="targetPoint" />
          </mxGeometry>
        </mxCell>
        <mxCell id="qCh6I8fhxBl5zx6jld5_-33" value="&lt;font style=&quot;font-size: 10px&quot;&gt;???&lt;/font&gt;" style="text;html=1;align=center;verticalAlign=middle;resizable=0;points=[];autosize=1;" vertex="1" parent="1">
          <mxGeometry x="715.25" y="318.45" width="30" height="20" as="geometry" />
        </mxCell>
        <mxCell id="qCh6I8fhxBl5zx6jld5_-34" value="&lt;font style=&quot;font-size: 10px&quot;&gt;???&lt;/font&gt;" style="text;html=1;align=center;verticalAlign=middle;resizable=0;points=[];autosize=1;" vertex="1" parent="1">
          <mxGeometry x="645.25" y="318.45" width="30" height="20" as="geometry" />
        </mxCell>
        <mxCell id="qCh6I8fhxBl5zx6jld5_-35" value="&lt;font style=&quot;font-size: 10px&quot;&gt;TCSresponse&lt;/font&gt;" style="text;html=1;align=center;verticalAlign=middle;resizable=0;points=[];autosize=1;" vertex="1" parent="1">
          <mxGeometry x="561.25" y="326.75" width="80" height="20" as="geometry" />
        </mxCell>
        <mxCell id="qCh6I8fhxBl5zx6jld5_-36" value="&lt;span style=&quot;font-size: 10px&quot;&gt;TCSrequest&lt;/span&gt;" style="text;html=1;align=center;verticalAlign=middle;resizable=0;points=[];autosize=1;" vertex="1" parent="1">
          <mxGeometry x="476.25" y="326.75" width="70" height="20" as="geometry" />
        </mxCell>
        <mxCell id="qCh6I8fhxBl5zx6jld5_-37" value="«component»&lt;br&gt;&lt;b&gt;GUI Epos Data Portal&lt;/b&gt;" style="html=1;dropTarget=0;" vertex="1" parent="1">
          <mxGeometry x="654" y="65" width="140" height="38.6" as="geometry" />
        </mxCell>
        <mxCell id="qCh6I8fhxBl5zx6jld5_-38" value="" style="shape=module;jettyWidth=8;jettyHeight=4;" vertex="1" parent="qCh6I8fhxBl5zx6jld5_-37">
          <mxGeometry x="1" width="20" height="20" relative="1" as="geometry">
            <mxPoint x="-27" y="7" as="offset" />
          </mxGeometry>
        </mxCell>
        <mxCell id="qCh6I8fhxBl5zx6jld5_-39" value="" style="rounded=0;orthogonalLoop=1;jettySize=auto;html=1;endArrow=none;endFill=0;exitX=0.641;exitY=0.02;exitDx=0;exitDy=0;exitPerimeter=0;" edge="1" parent="1" target="qCh6I8fhxBl5zx6jld5_-40">
          <mxGeometry relative="1" as="geometry">
            <mxPoint x="735.3800000000001" y="166.4000000000001" as="sourcePoint" />
            <mxPoint x="739" y="136.00000000000003" as="targetPoint" />
          </mxGeometry>
        </mxCell>
        <mxCell id="qCh6I8fhxBl5zx6jld5_-40" value="" style="ellipse;whiteSpace=wrap;html=1;fontFamily=Helvetica;fontSize=12;fontColor=#000000;align=center;strokeColor=#000000;fillColor=#ffffff;points=[];aspect=fixed;resizable=0;" vertex="1" parent="1">
          <mxGeometry x="730" y="135.00000000000003" width="10" height="10" as="geometry" />
        </mxCell>
        <mxCell id="qCh6I8fhxBl5zx6jld5_-41" value="" style="rounded=0;orthogonalLoop=1;jettySize=auto;html=1;endArrow=halfCircle;endFill=0;endSize=6;strokeWidth=1;exitX=0.5;exitY=1;exitDx=0;exitDy=0;entryX=0.535;entryY=0.114;entryDx=0;entryDy=0;entryPerimeter=0;" edge="1" parent="1" target="qCh6I8fhxBl5zx6jld5_-40">
          <mxGeometry relative="1" as="geometry">
            <mxPoint x="735.0999999999999" y="105" as="sourcePoint" />
            <mxPoint x="734.7700000000001" y="124.00000000000003" as="targetPoint" />
            <Array as="points" />
          </mxGeometry>
        </mxCell>
        <mxCell id="qCh6I8fhxBl5zx6jld5_-42" value="" style="rounded=0;orthogonalLoop=1;jettySize=auto;html=1;endArrow=halfCircle;endFill=0;endSize=6;strokeWidth=1;exitX=0.5;exitY=0;exitDx=0;exitDy=0;" edge="1" parent="1">
          <mxGeometry relative="1" as="geometry">
            <mxPoint x="710" y="165" as="sourcePoint" />
            <mxPoint x="710" y="135" as="targetPoint" />
            <Array as="points" />
          </mxGeometry>
        </mxCell>
        <mxCell id="qCh6I8fhxBl5zx6jld5_-43" value="" style="ellipse;whiteSpace=wrap;html=1;fontFamily=Helvetica;fontSize=12;fontColor=#000000;align=center;strokeColor=#000000;fillColor=#ffffff;points=[];aspect=fixed;resizable=0;" vertex="1" parent="1">
          <mxGeometry x="705" y="125.00000000000003" width="10" height="10" as="geometry" />
        </mxCell>
        <mxCell id="qCh6I8fhxBl5zx6jld5_-44" value="" style="rounded=0;orthogonalLoop=1;jettySize=auto;html=1;endArrow=none;endFill=0;" edge="1" parent="1" target="qCh6I8fhxBl5zx6jld5_-43">
          <mxGeometry relative="1" as="geometry">
            <mxPoint x="710" y="106" as="sourcePoint" />
            <mxPoint x="676" y="147.00000000000003" as="targetPoint" />
          </mxGeometry>
        </mxCell>
        <mxCell id="qCh6I8fhxBl5zx6jld5_-45" value="&lt;font style=&quot;font-size: 10px&quot;&gt;WebApiResponse&lt;/font&gt;" style="text;html=1;align=center;verticalAlign=middle;resizable=0;points=[];autosize=1;" vertex="1" parent="1">
          <mxGeometry x="730" y="106.4" width="100" height="20" as="geometry" />
        </mxCell>
        <mxCell id="qCh6I8fhxBl5zx6jld5_-46" value="&lt;span style=&quot;font-size: 10px&quot;&gt;ClientRequest&lt;/span&gt;" style="text;html=1;align=center;verticalAlign=middle;resizable=0;points=[];autosize=1;" vertex="1" parent="1">
          <mxGeometry x="630" y="106.4" width="80" height="20" as="geometry" />
        </mxCell>
        <mxCell id="qCh6I8fhxBl5zx6jld5_-47" value="&lt;b&gt;AAAI Manager&lt;/b&gt;" style="html=1;dropTarget=0;strokeColor=#66CC00;" vertex="1" parent="1">
          <mxGeometry x="230" y="155" width="150" height="51.4" as="geometry" />
        </mxCell>
        <mxCell id="qCh6I8fhxBl5zx6jld5_-48" value="" style="rounded=0;orthogonalLoop=1;jettySize=auto;html=1;endArrow=none;endFill=0;exitX=1;exitY=0.5;exitDx=0;exitDy=0;entryX=-0.1;entryY=0.53;entryDx=0;entryDy=0;entryPerimeter=0;" edge="1" parent="1" source="qCh6I8fhxBl5zx6jld5_-47" target="qCh6I8fhxBl5zx6jld5_-50">
          <mxGeometry relative="1" as="geometry">
            <mxPoint x="150" y="100.00000000000003" as="sourcePoint" />
            <mxPoint x="180" y="100.00000000000003" as="targetPoint" />
          </mxGeometry>
        </mxCell>
        <mxCell id="qCh6I8fhxBl5zx6jld5_-49" value="" style="rounded=0;orthogonalLoop=1;jettySize=auto;html=1;endArrow=halfCircle;endFill=0;entryX=0.5;entryY=0.5;entryDx=0;entryDy=0;endSize=6;strokeWidth=1;exitX=0;exitY=0.5;exitDx=0;exitDy=0;" edge="1" parent="1" source="qCh6I8fhxBl5zx6jld5_-3" target="qCh6I8fhxBl5zx6jld5_-50">
          <mxGeometry relative="1" as="geometry">
            <mxPoint x="150" y="95" as="sourcePoint" />
          </mxGeometry>
        </mxCell>
        <mxCell id="qCh6I8fhxBl5zx6jld5_-50" value="" style="ellipse;whiteSpace=wrap;html=1;fontFamily=Helvetica;fontSize=12;fontColor=#000000;align=center;strokeColor=#000000;fillColor=#ffffff;points=[];aspect=fixed;resizable=0;" vertex="1" parent="1">
          <mxGeometry x="400" y="175.70000000000005" width="10" height="10" as="geometry" />
        </mxCell>
        <mxCell id="qCh6I8fhxBl5zx6jld5_-51" style="edgeStyle=orthogonalEdgeStyle;rounded=0;orthogonalLoop=1;jettySize=auto;html=1;entryX=1;entryY=0.5;entryDx=0;entryDy=0;endArrow=none;endFill=0;" edge="1" parent="1" source="qCh6I8fhxBl5zx6jld5_-52" target="qCh6I8fhxBl5zx6jld5_-69">
          <mxGeometry relative="1" as="geometry" />
        </mxCell>
        <mxCell id="qCh6I8fhxBl5zx6jld5_-52" value="Metadata Catalogue" style="shape=cylinder3;whiteSpace=wrap;html=1;boundedLbl=1;backgroundOutline=1;size=7.993103448276088;shadow=1;" vertex="1" parent="1">
          <mxGeometry x="1129.13" y="592.8" width="106.75" height="78.6" as="geometry" />
        </mxCell>
        <mxCell id="qCh6I8fhxBl5zx6jld5_-53" value="" style="rounded=0;orthogonalLoop=1;jettySize=auto;html=1;endArrow=none;endFill=0;exitX=0;exitY=0.25;exitDx=0;exitDy=0;" edge="1" parent="1" source="qCh6I8fhxBl5zx6jld5_-81">
          <mxGeometry relative="1" as="geometry">
            <mxPoint x="560" y="670.55" as="sourcePoint" />
            <mxPoint x="420" y="252.55000000000018" as="targetPoint" />
          </mxGeometry>
        </mxCell>
        <mxCell id="qCh6I8fhxBl5zx6jld5_-54" value="" style="rounded=0;orthogonalLoop=1;jettySize=auto;html=1;endArrow=halfCircle;endFill=0;endSize=6;strokeWidth=1;entryX=0.535;entryY=0.114;entryDx=0;entryDy=0;entryPerimeter=0;exitX=1;exitY=0.367;exitDx=0;exitDy=0;exitPerimeter=0;" edge="1" parent="1" source="qCh6I8fhxBl5zx6jld5_-58" target="qCh6I8fhxBl5zx6jld5_-81">
          <mxGeometry relative="1" as="geometry">
            <mxPoint x="460" y="580.55" as="sourcePoint" />
            <mxPoint x="574.7700000000001" y="619.55" as="targetPoint" />
            <Array as="points" />
          </mxGeometry>
        </mxCell>
        <mxCell id="qCh6I8fhxBl5zx6jld5_-55" value="" style="rounded=0;orthogonalLoop=1;jettySize=auto;html=1;endArrow=halfCircle;endFill=0;endSize=6;strokeWidth=1;exitX=0;exitY=0.5;exitDx=0;exitDy=0;" edge="1" parent="1" source="qCh6I8fhxBl5zx6jld5_-7">
          <mxGeometry relative="1" as="geometry">
            <mxPoint x="481.75" y="279.55" as="sourcePoint" />
            <mxPoint x="421.75" y="273.5500000000002" as="targetPoint" />
            <Array as="points" />
          </mxGeometry>
        </mxCell>
        <mxCell id="qCh6I8fhxBl5zx6jld5_-56" value="" style="ellipse;whiteSpace=wrap;html=1;fontFamily=Helvetica;fontSize=12;fontColor=#000000;align=center;strokeColor=#000000;fillColor=#ffffff;points=[];aspect=fixed;resizable=0;" vertex="1" parent="1">
          <mxGeometry x="410" y="270.55" width="10" height="10" as="geometry" />
        </mxCell>
        <mxCell id="qCh6I8fhxBl5zx6jld5_-57" value="" style="rounded=0;orthogonalLoop=1;jettySize=auto;html=1;endArrow=none;endFill=0;exitX=1;exitY=0.75;exitDx=0;exitDy=0;" edge="1" parent="1" source="qCh6I8fhxBl5zx6jld5_-58" target="qCh6I8fhxBl5zx6jld5_-56">
          <mxGeometry relative="1" as="geometry">
            <mxPoint x="440" y="605.55" as="sourcePoint" />
            <mxPoint x="483.5" y="623.4499999999999" as="targetPoint" />
          </mxGeometry>
        </mxCell>
        <mxCell id="qCh6I8fhxBl5zx6jld5_-58" value="&lt;b&gt;TCS Services&lt;/b&gt;" style="html=1;dropTarget=0;" vertex="1" parent="1">
          <mxGeometry x="230" y="230.55" width="150" height="60" as="geometry" />
        </mxCell>
        <mxCell id="qCh6I8fhxBl5zx6jld5_-59" value="&lt;br&gt;«component»&lt;br&gt;&lt;b&gt;Processing &lt;br&gt;Access Service&lt;/b&gt;" style="html=1;dropTarget=0;strokeColor=#3333FF;verticalAlign=top;" vertex="1" parent="1">
          <mxGeometry x="1260" y="230.25" width="127.5" height="90" as="geometry" />
        </mxCell>
        <mxCell id="qCh6I8fhxBl5zx6jld5_-60" value="" style="shape=module;jettyWidth=8;jettyHeight=4;" vertex="1" parent="qCh6I8fhxBl5zx6jld5_-59">
          <mxGeometry x="1" width="20" height="20" relative="1" as="geometry">
            <mxPoint x="-27" y="7" as="offset" />
          </mxGeometry>
        </mxCell>
        <mxCell id="qCh6I8fhxBl5zx6jld5_-61" value="" style="rounded=0;orthogonalLoop=1;jettySize=auto;html=1;endArrow=none;endFill=0;exitX=0.641;exitY=0.02;exitDx=0;exitDy=0;exitPerimeter=0;" edge="1" parent="1" target="qCh6I8fhxBl5zx6jld5_-62">
          <mxGeometry relative="1" as="geometry">
            <mxPoint x="1330.38" y="380.25" as="sourcePoint" />
            <mxPoint x="1334" y="349.85" as="targetPoint" />
          </mxGeometry>
        </mxCell>
        <mxCell id="qCh6I8fhxBl5zx6jld5_-62" value="" style="ellipse;whiteSpace=wrap;html=1;fontFamily=Helvetica;fontSize=12;fontColor=#000000;align=center;strokeColor=#000000;fillColor=#ffffff;points=[];aspect=fixed;resizable=0;" vertex="1" parent="1">
          <mxGeometry x="1325" y="348.85" width="10" height="10" as="geometry" />
        </mxCell>
        <mxCell id="qCh6I8fhxBl5zx6jld5_-63" value="" style="rounded=0;orthogonalLoop=1;jettySize=auto;html=1;endArrow=halfCircle;endFill=0;endSize=6;strokeWidth=1;exitX=0.5;exitY=1;exitDx=0;exitDy=0;entryX=0.535;entryY=0.114;entryDx=0;entryDy=0;entryPerimeter=0;" edge="1" parent="1" target="qCh6I8fhxBl5zx6jld5_-62">
          <mxGeometry relative="1" as="geometry">
            <mxPoint x="1330.1" y="318.8499999999999" as="sourcePoint" />
            <mxPoint x="1329.77" y="337.85" as="targetPoint" />
            <Array as="points" />
          </mxGeometry>
        </mxCell>
        <mxCell id="qCh6I8fhxBl5zx6jld5_-64" value="" style="rounded=0;orthogonalLoop=1;jettySize=auto;html=1;endArrow=halfCircle;endFill=0;endSize=6;strokeWidth=1;exitX=0.5;exitY=0;exitDx=0;exitDy=0;" edge="1" parent="1">
          <mxGeometry relative="1" as="geometry">
            <mxPoint x="1305" y="378.8499999999999" as="sourcePoint" />
            <mxPoint x="1305" y="348.8499999999999" as="targetPoint" />
            <Array as="points" />
          </mxGeometry>
        </mxCell>
        <mxCell id="qCh6I8fhxBl5zx6jld5_-65" value="" style="ellipse;whiteSpace=wrap;html=1;fontFamily=Helvetica;fontSize=12;fontColor=#000000;align=center;strokeColor=#000000;fillColor=#ffffff;points=[];aspect=fixed;resizable=0;" vertex="1" parent="1">
          <mxGeometry x="1300" y="338.85" width="10" height="10" as="geometry" />
        </mxCell>
        <mxCell id="qCh6I8fhxBl5zx6jld5_-66" value="" style="rounded=0;orthogonalLoop=1;jettySize=auto;html=1;endArrow=none;endFill=0;" edge="1" parent="1" target="qCh6I8fhxBl5zx6jld5_-65">
          <mxGeometry relative="1" as="geometry">
            <mxPoint x="1305" y="319.8499999999999" as="sourcePoint" />
            <mxPoint x="1271" y="360.85" as="targetPoint" />
          </mxGeometry>
        </mxCell>
        <mxCell id="qCh6I8fhxBl5zx6jld5_-67" value="&lt;font style=&quot;font-size: 10px&quot;&gt;???&lt;/font&gt;" style="text;html=1;align=center;verticalAlign=middle;resizable=0;points=[];autosize=1;" vertex="1" parent="1">
          <mxGeometry x="1335" y="320.25" width="30" height="20" as="geometry" />
        </mxCell>
        <mxCell id="qCh6I8fhxBl5zx6jld5_-68" value="&lt;font style=&quot;font-size: 10px&quot;&gt;???&lt;/font&gt;" style="text;html=1;align=center;verticalAlign=middle;resizable=0;points=[];autosize=1;" vertex="1" parent="1">
          <mxGeometry x="1265" y="327.2" width="30" height="20" as="geometry" />
        </mxCell>
        <mxCell id="qCh6I8fhxBl5zx6jld5_-69" value="«&lt;font style=&quot;font-size: 10px&quot;&gt;sub-component&lt;/font&gt;»&lt;br&gt;&lt;b&gt;DB API&lt;/b&gt;" style="html=1;dropTarget=0;strokeColor=#000000;" vertex="1" parent="1">
          <mxGeometry x="886.87" y="601.8" width="160" height="60" as="geometry" />
        </mxCell>
        <mxCell id="qCh6I8fhxBl5zx6jld5_-70" value="" style="shape=module;jettyWidth=8;jettyHeight=4;" vertex="1" parent="qCh6I8fhxBl5zx6jld5_-69">
          <mxGeometry x="1" width="20" height="20" relative="1" as="geometry">
            <mxPoint x="-27" y="7" as="offset" />
          </mxGeometry>
        </mxCell>
        <mxCell id="qCh6I8fhxBl5zx6jld5_-71" value="«&lt;font style=&quot;font-size: 10px&quot;&gt;sub-component&lt;/font&gt;»&lt;br&gt;&lt;b&gt;Request Handler&lt;/b&gt;" style="html=1;dropTarget=0;" vertex="1" parent="1">
          <mxGeometry x="886.87" y="538.6999999999999" width="160" height="45" as="geometry" />
        </mxCell>
        <mxCell id="qCh6I8fhxBl5zx6jld5_-72" value="" style="shape=module;jettyWidth=8;jettyHeight=4;" vertex="1" parent="qCh6I8fhxBl5zx6jld5_-71">
          <mxGeometry x="1" width="20" height="20" relative="1" as="geometry">
            <mxPoint x="-27" y="7" as="offset" />
          </mxGeometry>
        </mxCell>
        <mxCell id="qCh6I8fhxBl5zx6jld5_-73" value="" style="endArrow=none;html=1;exitX=0.5;exitY=0;exitDx=0;exitDy=0;entryX=0.5;entryY=1;entryDx=0;entryDy=0;" edge="1" parent="1" source="qCh6I8fhxBl5zx6jld5_-69" target="qCh6I8fhxBl5zx6jld5_-71">
          <mxGeometry width="50" height="50" relative="1" as="geometry">
            <mxPoint x="787.87" y="651.4" as="sourcePoint" />
            <mxPoint x="943.87" y="583.4" as="targetPoint" />
          </mxGeometry>
        </mxCell>
        <mxCell id="qCh6I8fhxBl5zx6jld5_-74" style="edgeStyle=orthogonalEdgeStyle;rounded=0;orthogonalLoop=1;jettySize=auto;html=1;exitX=0.5;exitY=1;exitDx=0;exitDy=0;" edge="1" parent="1">
          <mxGeometry relative="1" as="geometry">
            <mxPoint x="520" y="-30" as="sourcePoint" />
            <mxPoint x="520" y="-30" as="targetPoint" />
          </mxGeometry>
        </mxCell>
        <mxCell id="qCh6I8fhxBl5zx6jld5_-75" value="«component»&lt;br&gt;&lt;b&gt;RESTful APIs&lt;/b&gt;" style="html=1;dropTarget=0;strokeColor=#CCCC00;" vertex="1" parent="1">
          <mxGeometry x="957.5" y="200.30000000000004" width="144" height="28.6" as="geometry" />
        </mxCell>
        <mxCell id="qCh6I8fhxBl5zx6jld5_-76" value="" style="shape=module;jettyWidth=8;jettyHeight=4;" vertex="1" parent="qCh6I8fhxBl5zx6jld5_-75">
          <mxGeometry x="1" width="20" height="20" relative="1" as="geometry">
            <mxPoint x="-27" y="7" as="offset" />
          </mxGeometry>
        </mxCell>
        <mxCell id="qCh6I8fhxBl5zx6jld5_-77" value="«component»&lt;br&gt;&lt;b&gt;RESTful APIs&lt;/b&gt;" style="html=1;dropTarget=0;strokeColor=#CCCC00;" vertex="1" parent="1">
          <mxGeometry x="1260" y="199.65" width="127.5" height="28.6" as="geometry" />
        </mxCell>
        <mxCell id="qCh6I8fhxBl5zx6jld5_-78" value="" style="shape=module;jettyWidth=8;jettyHeight=4;" vertex="1" parent="qCh6I8fhxBl5zx6jld5_-77">
          <mxGeometry x="1" width="20" height="20" relative="1" as="geometry">
            <mxPoint x="-27" y="7" as="offset" />
          </mxGeometry>
        </mxCell>
        <mxCell id="qCh6I8fhxBl5zx6jld5_-79" value="«component»&lt;br&gt;&lt;b&gt;RESTful APIs&lt;/b&gt;" style="html=1;dropTarget=0;strokeColor=#CCCC00;" vertex="1" parent="1">
          <mxGeometry x="491.75" y="200.95" width="139" height="28.6" as="geometry" />
        </mxCell>
        <mxCell id="qCh6I8fhxBl5zx6jld5_-80" value="" style="shape=module;jettyWidth=8;jettyHeight=4;" vertex="1" parent="qCh6I8fhxBl5zx6jld5_-79">
          <mxGeometry x="1" width="20" height="20" relative="1" as="geometry">
            <mxPoint x="-27" y="7" as="offset" />
          </mxGeometry>
        </mxCell>
        <mxCell id="qCh6I8fhxBl5zx6jld5_-81" value="" style="ellipse;whiteSpace=wrap;html=1;fontFamily=Helvetica;fontSize=12;fontColor=#000000;align=center;strokeColor=#000000;fillColor=#ffffff;points=[];aspect=fixed;resizable=0;" vertex="1" parent="1">
          <mxGeometry x="410" y="250.55" width="10" height="10" as="geometry" />
        </mxCell>
        <mxCell id="qCh6I8fhxBl5zx6jld5_-82" value="" style="rounded=0;orthogonalLoop=1;jettySize=auto;html=1;endArrow=none;endFill=0;entryX=0;entryY=0.25;entryDx=0;entryDy=0;" edge="1" parent="1" target="qCh6I8fhxBl5zx6jld5_-7">
          <mxGeometry relative="1" as="geometry">
            <mxPoint x="421.7482231698177" y="254.41671404880526" as="sourcePoint" />
            <mxPoint x="481.75" y="249.54999999999998" as="targetPoint" />
          </mxGeometry>
        </mxCell>
        <mxCell id="qCh6I8fhxBl5zx6jld5_-83" value="" style="rounded=0;orthogonalLoop=1;jettySize=auto;html=1;endArrow=none;endFill=0;exitX=0.641;exitY=0.02;exitDx=0;exitDy=0;exitPerimeter=0;" edge="1" parent="1" target="qCh6I8fhxBl5zx6jld5_-84">
          <mxGeometry relative="1" as="geometry">
            <mxPoint x="887.8800000000001" y="381.4000000000001" as="sourcePoint" />
            <mxPoint x="891.5" y="351" as="targetPoint" />
          </mxGeometry>
        </mxCell>
        <mxCell id="qCh6I8fhxBl5zx6jld5_-84" value="" style="ellipse;whiteSpace=wrap;html=1;fontFamily=Helvetica;fontSize=12;fontColor=#000000;align=center;strokeColor=#000000;fillColor=#ffffff;points=[];aspect=fixed;resizable=0;" vertex="1" parent="1">
          <mxGeometry x="882.5" y="350" width="10" height="10" as="geometry" />
        </mxCell>
        <mxCell id="qCh6I8fhxBl5zx6jld5_-85" value="" style="rounded=0;orthogonalLoop=1;jettySize=auto;html=1;endArrow=halfCircle;endFill=0;endSize=6;strokeWidth=1;exitX=0.5;exitY=1;exitDx=0;exitDy=0;entryX=0.535;entryY=0.114;entryDx=0;entryDy=0;entryPerimeter=0;" edge="1" parent="1" target="qCh6I8fhxBl5zx6jld5_-84">
          <mxGeometry relative="1" as="geometry">
            <mxPoint x="887.5999999999999" y="320" as="sourcePoint" />
            <mxPoint x="887.27" y="339" as="targetPoint" />
            <Array as="points" />
          </mxGeometry>
        </mxCell>
        <mxCell id="qCh6I8fhxBl5zx6jld5_-86" value="" style="rounded=0;orthogonalLoop=1;jettySize=auto;html=1;endArrow=halfCircle;endFill=0;endSize=6;strokeWidth=1;exitX=0.5;exitY=0;exitDx=0;exitDy=0;" edge="1" parent="1">
          <mxGeometry relative="1" as="geometry">
            <mxPoint x="862.5" y="380" as="sourcePoint" />
            <mxPoint x="862.5" y="350" as="targetPoint" />
            <Array as="points" />
          </mxGeometry>
        </mxCell>
        <mxCell id="qCh6I8fhxBl5zx6jld5_-87" value="" style="ellipse;whiteSpace=wrap;html=1;fontFamily=Helvetica;fontSize=12;fontColor=#000000;align=center;strokeColor=#000000;fillColor=#ffffff;points=[];aspect=fixed;resizable=0;" vertex="1" parent="1">
          <mxGeometry x="857.5" y="340" width="10" height="10" as="geometry" />
        </mxCell>
        <mxCell id="qCh6I8fhxBl5zx6jld5_-88" value="" style="rounded=0;orthogonalLoop=1;jettySize=auto;html=1;endArrow=none;endFill=0;" edge="1" parent="1" target="qCh6I8fhxBl5zx6jld5_-87">
          <mxGeometry relative="1" as="geometry">
            <mxPoint x="862.5" y="321" as="sourcePoint" />
            <mxPoint x="828.5" y="362" as="targetPoint" />
          </mxGeometry>
        </mxCell>
        <mxCell id="qCh6I8fhxBl5zx6jld5_-89" value="&lt;font style=&quot;font-size: 10px&quot;&gt;ConvertedOut&lt;/font&gt;" style="text;html=1;align=center;verticalAlign=middle;resizable=0;points=[];autosize=1;" vertex="1" parent="1">
          <mxGeometry x="892.5" y="335.2" width="80" height="20" as="geometry" />
        </mxCell>
        <mxCell id="qCh6I8fhxBl5zx6jld5_-90" value="&lt;span style=&quot;font-size: 10px&quot;&gt;elToConvert&lt;/span&gt;" style="text;html=1;align=center;verticalAlign=middle;resizable=0;points=[];autosize=1;" vertex="1" parent="1">
          <mxGeometry x="786.25" y="335.20000000000005" width="70" height="20" as="geometry" />
        </mxCell>
        <mxCell id="qCh6I8fhxBl5zx6jld5_-91" value="«component»&lt;br&gt;&lt;b&gt;RESTful APIs&lt;/b&gt;" style="html=1;dropTarget=0;strokeColor=#CCCC00;" vertex="1" parent="1">
          <mxGeometry x="815" y="200.4" width="132.5" height="28.6" as="geometry" />
        </mxCell>
        <mxCell id="qCh6I8fhxBl5zx6jld5_-92" value="" style="shape=module;jettyWidth=8;jettyHeight=4;" vertex="1" parent="qCh6I8fhxBl5zx6jld5_-91">
          <mxGeometry x="1" width="20" height="20" relative="1" as="geometry">
            <mxPoint x="-27" y="7" as="offset" />
          </mxGeometry>
        </mxCell>
        <mxCell id="qCh6I8fhxBl5zx6jld5_-93" value="" style="endArrow=none;html=1;exitX=1.002;exitY=0.45;exitDx=0;exitDy=0;exitPerimeter=0;entryX=0;entryY=0.5;entryDx=0;entryDy=0;" edge="1" parent="1" source="qCh6I8fhxBl5zx6jld5_-59" target="qCh6I8fhxBl5zx6jld5_-94">
          <mxGeometry width="50" height="50" relative="1" as="geometry">
            <mxPoint x="1467.5" y="274.7" as="sourcePoint" />
            <mxPoint x="1527.5" y="270.75" as="targetPoint" />
          </mxGeometry>
        </mxCell>
        <mxCell id="qCh6I8fhxBl5zx6jld5_-94" value="ICS-D Services" style="whiteSpace=wrap;html=1;aspect=fixed;" vertex="1" parent="1">
          <mxGeometry x="1490" y="210.9" width="120" height="120" as="geometry" />
        </mxCell>
        <mxCell id="qCh6I8fhxBl5zx6jld5_-95" value="&lt;br&gt;«component»&lt;br&gt;&lt;b&gt;Ingestor Service&lt;/b&gt;" style="html=1;dropTarget=0;strokeColor=#3333FF;v-align=top;labelPosition=center;verticalLabelPosition=middle;align=center;verticalAlign=top;" vertex="1" parent="1">
          <mxGeometry x="957.5" y="229.89999999999998" width="145" height="90" as="geometry" />
        </mxCell>
        <mxCell id="qCh6I8fhxBl5zx6jld5_-96" value="" style="shape=module;jettyWidth=8;jettyHeight=4;" vertex="1" parent="qCh6I8fhxBl5zx6jld5_-95">
          <mxGeometry x="1" width="20" height="20" relative="1" as="geometry">
            <mxPoint x="-27" y="7" as="offset" />
          </mxGeometry>
        </mxCell>
        <mxCell id="qCh6I8fhxBl5zx6jld5_-97" value="«component»&lt;br&gt;&lt;b&gt;RESTful APIs&lt;/b&gt;" style="html=1;dropTarget=0;strokeColor=#CCCC00;" vertex="1" parent="1">
          <mxGeometry x="641.75" y="199.85000000000002" width="144" height="28.6" as="geometry" />
        </mxCell>
        <mxCell id="qCh6I8fhxBl5zx6jld5_-98" value="" style="shape=module;jettyWidth=8;jettyHeight=4;" vertex="1" parent="qCh6I8fhxBl5zx6jld5_-97">
          <mxGeometry x="1" width="20" height="20" relative="1" as="geometry">
            <mxPoint x="-27" y="7" as="offset" />
          </mxGeometry>
        </mxCell>
        <mxCell id="qCh6I8fhxBl5zx6jld5_-99" value="«component»&lt;br&gt;&lt;b&gt;GUI Backoffice&lt;/b&gt;" style="html=1;dropTarget=0;" vertex="1" parent="1">
          <mxGeometry x="1120" y="67.8" width="140" height="38.6" as="geometry" />
        </mxCell>
        <mxCell id="qCh6I8fhxBl5zx6jld5_-100" value="" style="shape=module;jettyWidth=8;jettyHeight=4;" vertex="1" parent="qCh6I8fhxBl5zx6jld5_-99">
          <mxGeometry x="1" width="20" height="20" relative="1" as="geometry">
            <mxPoint x="-27" y="7" as="offset" />
          </mxGeometry>
        </mxCell>
        <mxCell id="qCh6I8fhxBl5zx6jld5_-101" value="" style="rounded=0;orthogonalLoop=1;jettySize=auto;html=1;endArrow=none;endFill=0;exitX=0.641;exitY=0.02;exitDx=0;exitDy=0;exitPerimeter=0;" edge="1" parent="1" target="qCh6I8fhxBl5zx6jld5_-102">
          <mxGeometry relative="1" as="geometry">
            <mxPoint x="1205.38" y="166.4000000000001" as="sourcePoint" />
            <mxPoint x="1209" y="136.00000000000003" as="targetPoint" />
          </mxGeometry>
        </mxCell>
        <mxCell id="qCh6I8fhxBl5zx6jld5_-102" value="" style="ellipse;whiteSpace=wrap;html=1;fontFamily=Helvetica;fontSize=12;fontColor=#000000;align=center;strokeColor=#000000;fillColor=#ffffff;points=[];aspect=fixed;resizable=0;" vertex="1" parent="1">
          <mxGeometry x="1200" y="135.00000000000003" width="10" height="10" as="geometry" />
        </mxCell>
        <mxCell id="qCh6I8fhxBl5zx6jld5_-103" value="" style="rounded=0;orthogonalLoop=1;jettySize=auto;html=1;endArrow=halfCircle;endFill=0;endSize=6;strokeWidth=1;exitX=0.5;exitY=1;exitDx=0;exitDy=0;entryX=0.535;entryY=0.114;entryDx=0;entryDy=0;entryPerimeter=0;" edge="1" parent="1" target="qCh6I8fhxBl5zx6jld5_-102">
          <mxGeometry relative="1" as="geometry">
            <mxPoint x="1205.1" y="105" as="sourcePoint" />
            <mxPoint x="1204.77" y="124.00000000000003" as="targetPoint" />
            <Array as="points" />
          </mxGeometry>
        </mxCell>
        <mxCell id="qCh6I8fhxBl5zx6jld5_-104" value="" style="rounded=0;orthogonalLoop=1;jettySize=auto;html=1;endArrow=halfCircle;endFill=0;endSize=6;strokeWidth=1;exitX=0.5;exitY=0;exitDx=0;exitDy=0;" edge="1" parent="1">
          <mxGeometry relative="1" as="geometry">
            <mxPoint x="1180" y="165" as="sourcePoint" />
            <mxPoint x="1180" y="135" as="targetPoint" />
            <Array as="points" />
          </mxGeometry>
        </mxCell>
        <mxCell id="qCh6I8fhxBl5zx6jld5_-105" value="" style="ellipse;whiteSpace=wrap;html=1;fontFamily=Helvetica;fontSize=12;fontColor=#000000;align=center;strokeColor=#000000;fillColor=#ffffff;points=[];aspect=fixed;resizable=0;" vertex="1" parent="1">
          <mxGeometry x="1175" y="125.00000000000003" width="10" height="10" as="geometry" />
        </mxCell>
        <mxCell id="qCh6I8fhxBl5zx6jld5_-106" value="" style="rounded=0;orthogonalLoop=1;jettySize=auto;html=1;endArrow=none;endFill=0;" edge="1" parent="1" target="qCh6I8fhxBl5zx6jld5_-105">
          <mxGeometry relative="1" as="geometry">
            <mxPoint x="1180" y="106" as="sourcePoint" />
            <mxPoint x="1146" y="147.00000000000003" as="targetPoint" />
          </mxGeometry>
        </mxCell>
        <mxCell id="qCh6I8fhxBl5zx6jld5_-107" value="&lt;font style=&quot;font-size: 10px&quot;&gt;WebApiResponse&lt;/font&gt;" style="text;html=1;align=center;verticalAlign=middle;resizable=0;points=[];autosize=1;" vertex="1" parent="1">
          <mxGeometry x="1200" y="106.4" width="100" height="20" as="geometry" />
        </mxCell>
        <mxCell id="qCh6I8fhxBl5zx6jld5_-108" value="&lt;span style=&quot;font-size: 10px&quot;&gt;ClientRequest&lt;/span&gt;" style="text;html=1;align=center;verticalAlign=middle;resizable=0;points=[];autosize=1;" vertex="1" parent="1">
          <mxGeometry x="1100" y="106.4" width="80" height="20" as="geometry" />
        </mxCell>
        <mxCell id="qCh6I8fhxBl5zx6jld5_-109" value="" style="rounded=0;orthogonalLoop=1;jettySize=auto;html=1;endArrow=none;endFill=0;exitX=0.641;exitY=0.02;exitDx=0;exitDy=0;exitPerimeter=0;" edge="1" parent="1" target="qCh6I8fhxBl5zx6jld5_-110">
          <mxGeometry relative="1" as="geometry">
            <mxPoint x="1042.88" y="381.5999999999999" as="sourcePoint" />
            <mxPoint x="1046.5" y="351.2" as="targetPoint" />
          </mxGeometry>
        </mxCell>
        <mxCell id="qCh6I8fhxBl5zx6jld5_-110" value="" style="ellipse;whiteSpace=wrap;html=1;fontFamily=Helvetica;fontSize=12;fontColor=#000000;align=center;strokeColor=#000000;fillColor=#ffffff;points=[];aspect=fixed;resizable=0;" vertex="1" parent="1">
          <mxGeometry x="1037.5" y="350.2" width="10" height="10" as="geometry" />
        </mxCell>
        <mxCell id="qCh6I8fhxBl5zx6jld5_-111" value="" style="rounded=0;orthogonalLoop=1;jettySize=auto;html=1;endArrow=halfCircle;endFill=0;endSize=6;strokeWidth=1;exitX=0.5;exitY=1;exitDx=0;exitDy=0;entryX=0.535;entryY=0.114;entryDx=0;entryDy=0;entryPerimeter=0;" edge="1" parent="1" target="qCh6I8fhxBl5zx6jld5_-110">
          <mxGeometry relative="1" as="geometry">
            <mxPoint x="1042.6" y="320.1999999999998" as="sourcePoint" />
            <mxPoint x="1042.27" y="339.2" as="targetPoint" />
            <Array as="points" />
          </mxGeometry>
        </mxCell>
        <mxCell id="qCh6I8fhxBl5zx6jld5_-112" value="" style="rounded=0;orthogonalLoop=1;jettySize=auto;html=1;endArrow=halfCircle;endFill=0;endSize=6;strokeWidth=1;exitX=0.5;exitY=0;exitDx=0;exitDy=0;" edge="1" parent="1">
          <mxGeometry relative="1" as="geometry">
            <mxPoint x="1017.5" y="380.1999999999998" as="sourcePoint" />
            <mxPoint x="1017.5" y="350.1999999999998" as="targetPoint" />
            <Array as="points" />
          </mxGeometry>
        </mxCell>
        <mxCell id="qCh6I8fhxBl5zx6jld5_-113" value="" style="ellipse;whiteSpace=wrap;html=1;fontFamily=Helvetica;fontSize=12;fontColor=#000000;align=center;strokeColor=#000000;fillColor=#ffffff;points=[];aspect=fixed;resizable=0;" vertex="1" parent="1">
          <mxGeometry x="1012.4999999999999" y="340.2" width="10" height="10" as="geometry" />
        </mxCell>
        <mxCell id="qCh6I8fhxBl5zx6jld5_-114" value="" style="rounded=0;orthogonalLoop=1;jettySize=auto;html=1;endArrow=none;endFill=0;" edge="1" parent="1" target="qCh6I8fhxBl5zx6jld5_-113">
          <mxGeometry relative="1" as="geometry">
            <mxPoint x="1017.5" y="321.1999999999998" as="sourcePoint" />
            <mxPoint x="983.5" y="362.2" as="targetPoint" />
          </mxGeometry>
        </mxCell>
        <mxCell id="qCh6I8fhxBl5zx6jld5_-115" value="&lt;br&gt;«component»&lt;br&gt;&lt;b&gt;Backoffice Service&lt;/b&gt;" style="html=1;dropTarget=0;strokeColor=#3333FF;v-align=top;labelPosition=center;verticalLabelPosition=middle;align=center;verticalAlign=top;" vertex="1" parent="1">
          <mxGeometry x="1110" y="230.54999999999998" width="145" height="90" as="geometry" />
        </mxCell>
        <mxCell id="qCh6I8fhxBl5zx6jld5_-116" value="" style="shape=module;jettyWidth=8;jettyHeight=4;" vertex="1" parent="qCh6I8fhxBl5zx6jld5_-115">
          <mxGeometry x="1" width="20" height="20" relative="1" as="geometry">
            <mxPoint x="-27" y="7" as="offset" />
          </mxGeometry>
        </mxCell>
        <mxCell id="qCh6I8fhxBl5zx6jld5_-117" value="«component»&lt;br&gt;&lt;b&gt;RESTful APIs&lt;/b&gt;" style="html=1;dropTarget=0;strokeColor=#CCCC00;" vertex="1" parent="1">
          <mxGeometry x="1110" y="199.85000000000005" width="144" height="28.6" as="geometry" />
        </mxCell>
        <mxCell id="qCh6I8fhxBl5zx6jld5_-118" value="" style="shape=module;jettyWidth=8;jettyHeight=4;" vertex="1" parent="qCh6I8fhxBl5zx6jld5_-117">
          <mxGeometry x="1" width="20" height="20" relative="1" as="geometry">
            <mxPoint x="-27" y="7" as="offset" />
          </mxGeometry>
        </mxCell>
        <mxCell id="qCh6I8fhxBl5zx6jld5_-119" value="" style="rounded=0;orthogonalLoop=1;jettySize=auto;html=1;endArrow=none;endFill=0;exitX=0.641;exitY=0.02;exitDx=0;exitDy=0;exitPerimeter=0;" edge="1" parent="1" target="qCh6I8fhxBl5zx6jld5_-120">
          <mxGeometry relative="1" as="geometry">
            <mxPoint x="1194.8800000000006" y="379.8499999999999" as="sourcePoint" />
            <mxPoint x="1198.5" y="349.45" as="targetPoint" />
          </mxGeometry>
        </mxCell>
        <mxCell id="qCh6I8fhxBl5zx6jld5_-120" value="" style="ellipse;whiteSpace=wrap;html=1;fontFamily=Helvetica;fontSize=12;fontColor=#000000;align=center;strokeColor=#000000;fillColor=#ffffff;points=[];aspect=fixed;resizable=0;" vertex="1" parent="1">
          <mxGeometry x="1189.5" y="348.45" width="10" height="10" as="geometry" />
        </mxCell>
        <mxCell id="qCh6I8fhxBl5zx6jld5_-121" value="" style="rounded=0;orthogonalLoop=1;jettySize=auto;html=1;endArrow=halfCircle;endFill=0;endSize=6;strokeWidth=1;exitX=0.5;exitY=1;exitDx=0;exitDy=0;entryX=0.535;entryY=0.114;entryDx=0;entryDy=0;entryPerimeter=0;" edge="1" parent="1" target="qCh6I8fhxBl5zx6jld5_-120">
          <mxGeometry relative="1" as="geometry">
            <mxPoint x="1194.6" y="318.4499999999998" as="sourcePoint" />
            <mxPoint x="1194.27" y="337.45" as="targetPoint" />
            <Array as="points" />
          </mxGeometry>
        </mxCell>
        <mxCell id="qCh6I8fhxBl5zx6jld5_-122" value="" style="rounded=0;orthogonalLoop=1;jettySize=auto;html=1;endArrow=halfCircle;endFill=0;endSize=6;strokeWidth=1;exitX=0.5;exitY=0;exitDx=0;exitDy=0;" edge="1" parent="1">
          <mxGeometry relative="1" as="geometry">
            <mxPoint x="1169.5000000000005" y="378.4499999999998" as="sourcePoint" />
            <mxPoint x="1169.5000000000005" y="348.4499999999998" as="targetPoint" />
            <Array as="points" />
          </mxGeometry>
        </mxCell>
        <mxCell id="qCh6I8fhxBl5zx6jld5_-123" value="" style="ellipse;whiteSpace=wrap;html=1;fontFamily=Helvetica;fontSize=12;fontColor=#000000;align=center;strokeColor=#000000;fillColor=#ffffff;points=[];aspect=fixed;resizable=0;" vertex="1" parent="1">
          <mxGeometry x="1164.5" y="338.45" width="10" height="10" as="geometry" />
        </mxCell>
        <mxCell id="qCh6I8fhxBl5zx6jld5_-124" value="" style="rounded=0;orthogonalLoop=1;jettySize=auto;html=1;endArrow=none;endFill=0;" edge="1" parent="1" target="qCh6I8fhxBl5zx6jld5_-123">
          <mxGeometry relative="1" as="geometry">
            <mxPoint x="1169.5000000000005" y="319.4499999999998" as="sourcePoint" />
            <mxPoint x="1135.5" y="360.45" as="targetPoint" />
          </mxGeometry>
        </mxCell>
        <mxCell id="qCh6I8fhxBl5zx6jld5_-125" value="«component»&lt;br&gt;&lt;b&gt;Any other client&lt;/b&gt;" style="html=1;dropTarget=0;fillColor=#FFCCCC;" vertex="1" parent="1">
          <mxGeometry x="850.6300000000001" y="64.99999999999999" width="171.87" height="40" as="geometry" />
        </mxCell>
        <mxCell id="qCh6I8fhxBl5zx6jld5_-126" value="" style="shape=module;jettyWidth=8;jettyHeight=4;" vertex="1" parent="qCh6I8fhxBl5zx6jld5_-125">
          <mxGeometry x="1" width="20" height="20" relative="1" as="geometry">
            <mxPoint x="-27" y="7" as="offset" />
          </mxGeometry>
        </mxCell>
        <mxCell id="qCh6I8fhxBl5zx6jld5_-127" value="" style="rounded=0;orthogonalLoop=1;jettySize=auto;html=1;endArrow=none;endFill=0;exitX=0.641;exitY=0.02;exitDx=0;exitDy=0;exitPerimeter=0;" edge="1" parent="1" target="qCh6I8fhxBl5zx6jld5_-128">
          <mxGeometry relative="1" as="geometry">
            <mxPoint x="949.44" y="166.4000000000001" as="sourcePoint" />
            <mxPoint x="953.06" y="136.00000000000003" as="targetPoint" />
          </mxGeometry>
        </mxCell>
        <mxCell id="qCh6I8fhxBl5zx6jld5_-128" value="" style="ellipse;whiteSpace=wrap;html=1;fontFamily=Helvetica;fontSize=12;fontColor=#000000;align=center;strokeColor=#000000;fillColor=#ffffff;points=[];aspect=fixed;resizable=0;" vertex="1" parent="1">
          <mxGeometry x="944.06" y="135.00000000000003" width="10" height="10" as="geometry" />
        </mxCell>
        <mxCell id="qCh6I8fhxBl5zx6jld5_-129" value="" style="rounded=0;orthogonalLoop=1;jettySize=auto;html=1;endArrow=halfCircle;endFill=0;endSize=6;strokeWidth=1;exitX=0.5;exitY=1;exitDx=0;exitDy=0;entryX=0.535;entryY=0.114;entryDx=0;entryDy=0;entryPerimeter=0;" edge="1" parent="1" target="qCh6I8fhxBl5zx6jld5_-128">
          <mxGeometry relative="1" as="geometry">
            <mxPoint x="949.1599999999999" y="105" as="sourcePoint" />
            <mxPoint x="948.8299999999999" y="124" as="targetPoint" />
            <Array as="points" />
          </mxGeometry>
        </mxCell>
        <mxCell id="qCh6I8fhxBl5zx6jld5_-130" value="" style="rounded=0;orthogonalLoop=1;jettySize=auto;html=1;endArrow=halfCircle;endFill=0;endSize=6;strokeWidth=1;exitX=0.5;exitY=0;exitDx=0;exitDy=0;" edge="1" parent="1">
          <mxGeometry relative="1" as="geometry">
            <mxPoint x="924.06" y="165" as="sourcePoint" />
            <mxPoint x="924.06" y="135" as="targetPoint" />
            <Array as="points" />
          </mxGeometry>
        </mxCell>
        <mxCell id="qCh6I8fhxBl5zx6jld5_-131" value="" style="ellipse;whiteSpace=wrap;html=1;fontFamily=Helvetica;fontSize=12;fontColor=#000000;align=center;strokeColor=#000000;fillColor=#ffffff;points=[];aspect=fixed;resizable=0;" vertex="1" parent="1">
          <mxGeometry x="919.06" y="125" width="10" height="10" as="geometry" />
        </mxCell>
        <mxCell id="qCh6I8fhxBl5zx6jld5_-132" value="" style="rounded=0;orthogonalLoop=1;jettySize=auto;html=1;endArrow=none;endFill=0;" edge="1" parent="1" target="qCh6I8fhxBl5zx6jld5_-131">
          <mxGeometry relative="1" as="geometry">
            <mxPoint x="924.06" y="106" as="sourcePoint" />
            <mxPoint x="890.06" y="147.00000000000003" as="targetPoint" />
          </mxGeometry>
        </mxCell>
      </root>
    </mxGraphModel>
  </diagram>
</mxfile>
